<?xml version="1.0" standalone="no"?><svg xmlns="http://www.w3.org/2000/svg" viewBox="0 0 1440 320"><path fill="#9b72c7" fill-opacity="1" d="M0,192L30,170.7C60,149,120,107,180,96C240,85,300,107,360,144C420,181,480,235,540,250.7C600,267,660,245,720,218.7C780,192,840,160,900,160C960,160,1020,192,1080,197.3C1140,203,1200,181,1260,149.3C1320,117,1380,75,1410,53.3L1440,32L1440,320L1410,320C1380,320,1320,320,1260,320C1200,320,1140,320,1080,320C1020,320,960,320,900,320C840,320,780,320,720,320C660,320,600,320,540,320C480,320,420,320,360,320C300,320,240,320,180,320C120,320,60,320,30,320L0,320Z"></path></svg>